# xmcd
# 
# Track frame offsets:
#     150
#     36582
#     64742
#     90542
#     118062
#     141675
# 
# Disc length: 2311
# 
# Revision: 1
# Processed by: cddbd v1.5.2PL0 Copyright (c) Steve Scherf et al.
# Submitted via: BonkEnc v1.0.15
# 
DISCID=5b090506
DTITLE=Ron Carter - Peg leg
DYEAR=1977
DGENRE=Jazz
TTITLE0=Peg leg
TTITLE1=Sheila's song (Hasta luego, mi amiga)
TTITLE2=Chapter XI
TTITLE3=Epistrophy
TTITLE4=My ship
TTITLE5=Patchouli
EXTD=YEAR: 1977
EXTT0=
EXTT1=
EXTT2=
EXTT3=
EXTT4=
EXTT5=
PLAYORDER=
